<svg id="visual" viewBox="0 0 960 540" width="960" height="540" xmlns="http://www.w3.org/2000/svg" xmlns:xlink="http://www.w3.org/1999/xlink" version="1.1"><rect x="0" y="0" width="960" height="540" fill="#090808"></rect><path d="M0 335L14.5 329.5C29 324 58 313 87.2 310.2C116.3 307.3 145.7 312.7 174.8 312.7C204 312.7 233 307.3 262 306.3C291 305.3 320 308.7 349 307.8C378 307 407 302 436.2 303.5C465.3 305 494.7 313 523.8 313.3C553 313.7 582 306.3 611 309C640 311.7 669 324.3 698 331.7C727 339 756 341 785.2 334.8C814.3 328.7 843.7 314.3 872.8 312.3C902 310.3 931 320.7 945.5 325.8L960 331L960 541L945.5 541C931 541 902 541 872.8 541C843.7 541 814.3 541 785.2 541C756 541 727 541 698 541C669 541 640 541 611 541C582 541 553 541 523.8 541C494.7 541 465.3 541 436.2 541C407 541 378 541 349 541C320 541 291 541 262 541C233 541 204 541 174.8 541C145.7 541 116.3 541 87.2 541C58 541 29 541 14.5 541L0 541Z" fill="#111113"></path><path d="M0 356L14.5 356.7C29 357.3 58 358.7 87.2 360.5C116.3 362.3 145.7 364.7 174.8 365.7C204 366.7 233 366.3 262 360.7C291 355 320 344 349 343.7C378 343.3 407 353.7 436.2 358C465.3 362.3 494.7 360.7 523.8 355.5C553 350.3 582 341.7 611 341.8C640 342 669 351 698 351.7C727 352.3 756 344.7 785.2 340.3C814.3 336 843.7 335 872.8 338.2C902 341.3 931 348.7 945.5 352.3L960 356L960 541L945.5 541C931 541 902 541 872.8 541C843.7 541 814.3 541 785.2 541C756 541 727 541 698 541C669 541 640 541 611 541C582 541 553 541 523.8 541C494.7 541 465.3 541 436.2 541C407 541 378 541 349 541C320 541 291 541 262 541C233 541 204 541 174.8 541C145.7 541 116.3 541 87.2 541C58 541 29 541 14.5 541L0 541Z" fill="#22242d"></path><path d="M0 382L14.5 379.8C29 377.7 58 373.3 87.2 370.3C116.3 367.3 145.7 365.7 174.8 369.3C204 373 233 382 262 382.7C291 383.3 320 375.7 349 374.7C378 373.7 407 379.3 436.2 383.8C465.3 388.3 494.7 391.7 523.8 386.7C553 381.7 582 368.3 611 368.2C640 368 669 381 698 383.7C727 386.3 756 378.7 785.2 378.8C814.3 379 843.7 387 872.8 384.8C902 382.7 931 370.3 945.5 364.2L960 358L960 541L945.5 541C931 541 902 541 872.8 541C843.7 541 814.3 541 785.2 541C756 541 727 541 698 541C669 541 640 541 611 541C582 541 553 541 523.8 541C494.7 541 465.3 541 436.2 541C407 541 378 541 349 541C320 541 291 541 262 541C233 541 204 541 174.8 541C145.7 541 116.3 541 87.2 541C58 541 29 541 14.5 541L0 541Z" fill="#313849"></path><path d="M0 392L14.5 395.7C29 399.3 58 406.7 87.2 408.5C116.3 410.3 145.7 406.7 174.8 402.5C204 398.3 233 393.7 262 395.8C291 398 320 407 349 407.8C378 408.7 407 401.3 436.2 400C465.3 398.7 494.7 403.3 523.8 407.3C553 411.3 582 414.7 611 414.5C640 414.3 669 410.7 698 405.8C727 401 756 395 785.2 390.8C814.3 386.7 843.7 384.3 872.8 383.7C902 383 931 384 945.5 384.5L960 385L960 541L945.5 541C931 541 902 541 872.8 541C843.7 541 814.3 541 785.2 541C756 541 727 541 698 541C669 541 640 541 611 541C582 541 553 541 523.8 541C494.7 541 465.3 541 436.2 541C407 541 378 541 349 541C320 541 291 541 262 541C233 541 204 541 174.8 541C145.7 541 116.3 541 87.2 541C58 541 29 541 14.5 541L0 541Z" fill="#3f4e67"></path><path d="M0 412L14.5 416.2C29 420.3 58 428.7 87.2 431.8C116.3 435 145.7 433 174.8 430C204 427 233 423 262 424.5C291 426 320 433 349 433.3C378 433.7 407 427.3 436.2 422.5C465.3 417.7 494.7 414.3 523.8 413.5C553 412.7 582 414.3 611 415.7C640 417 669 418 698 417.3C727 416.7 756 414.3 785.2 416.8C814.3 419.3 843.7 426.7 872.8 429C902 431.3 931 428.7 945.5 427.3L960 426L960 541L945.5 541C931 541 902 541 872.8 541C843.7 541 814.3 541 785.2 541C756 541 727 541 698 541C669 541 640 541 611 541C582 541 553 541 523.8 541C494.7 541 465.3 541 436.2 541C407 541 378 541 349 541C320 541 291 541 262 541C233 541 204 541 174.8 541C145.7 541 116.3 541 87.2 541C58 541 29 541 14.5 541L0 541Z" fill="#4a6587"></path><path d="M0 456L14.5 454.3C29 452.7 58 449.3 87.2 451.8C116.3 454.3 145.7 462.7 174.8 461.5C204 460.3 233 449.7 262 445C291 440.3 320 441.7 349 441.7C378 441.7 407 440.3 436.2 441C465.3 441.7 494.7 444.3 523.8 445.5C553 446.7 582 446.3 611 448.7C640 451 669 456 698 455.7C727 455.3 756 449.7 785.2 446.8C814.3 444 843.7 444 872.8 445C902 446 931 448 945.5 449L960 450L960 541L945.5 541C931 541 902 541 872.8 541C843.7 541 814.3 541 785.2 541C756 541 727 541 698 541C669 541 640 541 611 541C582 541 553 541 523.8 541C494.7 541 465.3 541 436.2 541C407 541 378 541 349 541C320 541 291 541 262 541C233 541 204 541 174.8 541C145.7 541 116.3 541 87.2 541C58 541 29 541 14.5 541L0 541Z" fill="#537da8"></path><path d="M0 470L14.5 470C29 470 58 470 87.2 472.2C116.3 474.3 145.7 478.7 174.8 482.3C204 486 233 489 262 486.8C291 484.7 320 477.3 349 475.3C378 473.3 407 476.7 436.2 480.2C465.3 483.7 494.7 487.3 523.8 486.8C553 486.3 582 481.7 611 481.8C640 482 669 487 698 486.3C727 485.7 756 479.3 785.2 477.5C814.3 475.7 843.7 478.3 872.8 479.5C902 480.7 931 480.3 945.5 480.2L960 480L960 541L945.5 541C931 541 902 541 872.8 541C843.7 541 814.3 541 785.2 541C756 541 727 541 698 541C669 541 640 541 611 541C582 541 553 541 523.8 541C494.7 541 465.3 541 436.2 541C407 541 378 541 349 541C320 541 291 541 262 541C233 541 204 541 174.8 541C145.7 541 116.3 541 87.2 541C58 541 29 541 14.5 541L0 541Z" fill="#5897c9"></path><path d="M0 497L14.5 497.7C29 498.3 58 499.7 87.2 502.2C116.3 504.7 145.7 508.3 174.8 508.8C204 509.3 233 506.7 262 508.2C291 509.7 320 515.3 349 516.2C378 517 407 513 436.2 512C465.3 511 494.7 513 523.8 515.3C553 517.7 582 520.3 611 518C640 515.7 669 508.3 698 505C727 501.7 756 502.3 785.2 505.5C814.3 508.7 843.7 514.3 872.8 515.5C902 516.7 931 513.3 945.5 511.7L960 510L960 541L945.5 541C931 541 902 541 872.8 541C843.7 541 814.3 541 785.2 541C756 541 727 541 698 541C669 541 640 541 611 541C582 541 553 541 523.8 541C494.7 541 465.3 541 436.2 541C407 541 378 541 349 541C320 541 291 541 262 541C233 541 204 541 174.8 541C145.7 541 116.3 541 87.2 541C58 541 29 541 14.5 541L0 541Z" fill="#5ab2eb"></path></svg>