<svg width="73" height="73" viewBox="0 0 73 73" fill="none" xmlns="http://www.w3.org/2000/svg">
<path d="M56 17.5H17.5V56H56V17.5Z" fill="url(#paint0_linear)" stroke="#A0A1A4" stroke-linejoin="round"/>
<path d="M3.75 23H17.5" stroke="#D4D6D9"/>
<path d="M3.75 36.75H17.5" stroke="#D4D6D9"/>
<path d="M3.75 50.5H17.5" stroke="#D4D6D9"/>
<path d="M23 56V69.75" stroke="#D4D6D9"/>
<path d="M36.75 56V69.75" stroke="#D4D6D9"/>
<path d="M50.5 56V69.75" stroke="#D4D6D9"/>
<path d="M56 23H69.75" stroke="#D4D6D9"/>
<path d="M56 36.75H69.75" stroke="#D4D6D9"/>
<path d="M56 50.5H69.75" stroke="#D4D6D9"/>
<path d="M50.5 17.5V3.75" stroke="#D4D6D9"/>
<path d="M36.75 17.5V3.75" stroke="#D4D6D9"/>
<path d="M23 17.5V3.75" stroke="#D4D6D9"/>
<path d="M3.75 25.75C5.26878 25.75 6.5 24.5188 6.5 23C6.5 21.4812 5.26878 20.25 3.75 20.25C2.23122 20.25 1 21.4812 1 23C1 24.5188 2.23122 25.75 3.75 25.75Z" fill="url(#paint1_linear)" stroke="#A0A1A4" stroke-linejoin="round"/>
<path d="M3.75 39.5C5.26878 39.5 6.5 38.2688 6.5 36.75C6.5 35.2312 5.26878 34 3.75 34C2.23122 34 1 35.2312 1 36.75C1 38.2688 2.23122 39.5 3.75 39.5Z" fill="url(#paint2_linear)" stroke="#A0A1A4" stroke-linejoin="round"/>
<path d="M3.75 53.25C5.26878 53.25 6.5 52.0188 6.5 50.5C6.5 48.9812 5.26878 47.75 3.75 47.75C2.23122 47.75 1 48.9812 1 50.5C1 52.0188 2.23122 53.25 3.75 53.25Z" fill="url(#paint3_linear)" stroke="#A0A1A4" stroke-linejoin="round"/>
<path d="M69.75 25.75C71.2688 25.75 72.5 24.5188 72.5 23C72.5 21.4812 71.2688 20.25 69.75 20.25C68.2312 20.25 67 21.4812 67 23C67 24.5188 68.2312 25.75 69.75 25.75Z" fill="url(#paint4_linear)" stroke="#A0A1A4" stroke-linejoin="round"/>
<path d="M69.75 39.5C71.2688 39.5 72.5 38.2688 72.5 36.75C72.5 35.2312 71.2688 34 69.75 34C68.2312 34 67 35.2312 67 36.75C67 38.2688 68.2312 39.5 69.75 39.5Z" fill="url(#paint5_linear)" stroke="#A0A1A4" stroke-linejoin="round"/>
<path d="M69.75 53.25C71.2688 53.25 72.5 52.0188 72.5 50.5C72.5 48.9812 71.2688 47.75 69.75 47.75C68.2312 47.75 67 48.9812 67 50.5C67 52.0188 68.2312 53.25 69.75 53.25Z" fill="url(#paint6_linear)" stroke="#A0A1A4" stroke-linejoin="round"/>
<path d="M36.75 72.5C38.2688 72.5 39.5 71.2688 39.5 69.75C39.5 68.2312 38.2688 67 36.75 67C35.2312 67 34 68.2312 34 69.75C34 71.2688 35.2312 72.5 36.75 72.5Z" fill="url(#paint7_linear)" stroke="#A0A1A4" stroke-linejoin="round"/>
<path d="M23 72.5C24.5188 72.5 25.75 71.2688 25.75 69.75C25.75 68.2312 24.5188 67 23 67C21.4812 67 20.25 68.2312 20.25 69.75C20.25 71.2688 21.4812 72.5 23 72.5Z" fill="url(#paint8_linear)" stroke="#A0A1A4" stroke-linejoin="round"/>
<path d="M50.5 72.5C52.0188 72.5 53.25 71.2688 53.25 69.75C53.25 68.2312 52.0188 67 50.5 67C48.9812 67 47.75 68.2312 47.75 69.75C47.75 71.2688 48.9812 72.5 50.5 72.5Z" fill="url(#paint9_linear)" stroke="#A0A1A4" stroke-linejoin="round"/>
<path d="M36.75 6.5C38.2688 6.5 39.5 5.26878 39.5 3.75C39.5 2.23122 38.2688 1 36.75 1C35.2312 1 34 2.23122 34 3.75C34 5.26878 35.2312 6.5 36.75 6.5Z" fill="url(#paint10_linear)" stroke="#A0A1A4" stroke-linejoin="round"/>
<path d="M23 6.5C24.5188 6.5 25.75 5.26878 25.75 3.75C25.75 2.23122 24.5188 1 23 1C21.4812 1 20.25 2.23122 20.25 3.75C20.25 5.26878 21.4812 6.5 23 6.5Z" fill="url(#paint11_linear)" stroke="#A0A1A4" stroke-linejoin="round"/>
<path d="M50.5 6.5C52.0188 6.5 53.25 5.26878 53.25 3.75C53.25 2.23122 52.0188 1 50.5 1C48.9812 1 47.75 2.23122 47.75 3.75C47.75 5.26878 48.9812 6.5 50.5 6.5Z" fill="url(#paint12_linear)" stroke="#A0A1A4" stroke-linejoin="round"/>
<path d="M23 23H50.5" stroke="#D4D6D9"/>
<path d="M23 50.5H31.25" stroke="#D4D6D9"/>
<path d="M36.75 50.5H50.5" stroke="#D4D6D9"/>
<defs>
<linearGradient id="paint0_linear" x1="40.3854" y1="-21" x2="-17.975" y2="20.3154" gradientUnits="userSpaceOnUse">
<stop offset="0.164376" stop-color="#9B82FF"/>
<stop offset="0.5747" stop-color="#5AB2EB"/>
<stop offset="0.779941" stop-color="#00F0FF"/>
</linearGradient>
<linearGradient id="paint1_linear" x1="4.26935" y1="14.75" x2="-4.06786" y2="20.6522" gradientUnits="userSpaceOnUse">
<stop offset="0.164376" stop-color="#9B82FF"/>
<stop offset="0.5747" stop-color="#5AB2EB"/>
<stop offset="0.779941" stop-color="#00F0FF"/>
</linearGradient>
<linearGradient id="paint2_linear" x1="4.26935" y1="28.5" x2="-4.06786" y2="34.4022" gradientUnits="userSpaceOnUse">
<stop offset="0.164376" stop-color="#9B82FF"/>
<stop offset="0.5747" stop-color="#5AB2EB"/>
<stop offset="0.779941" stop-color="#00F0FF"/>
</linearGradient>
<linearGradient id="paint3_linear" x1="4.26935" y1="42.25" x2="-4.06786" y2="48.1522" gradientUnits="userSpaceOnUse">
<stop offset="0.164376" stop-color="#9B82FF"/>
<stop offset="0.5747" stop-color="#5AB2EB"/>
<stop offset="0.779941" stop-color="#00F0FF"/>
</linearGradient>
<linearGradient id="paint4_linear" x1="70.2693" y1="14.75" x2="61.9321" y2="20.6522" gradientUnits="userSpaceOnUse">
<stop offset="0.164376" stop-color="#9B82FF"/>
<stop offset="0.5747" stop-color="#5AB2EB"/>
<stop offset="0.779941" stop-color="#00F0FF"/>
</linearGradient>
<linearGradient id="paint5_linear" x1="70.2693" y1="28.5" x2="61.9321" y2="34.4022" gradientUnits="userSpaceOnUse">
<stop offset="0.164376" stop-color="#9B82FF"/>
<stop offset="0.5747" stop-color="#5AB2EB"/>
<stop offset="0.779941" stop-color="#00F0FF"/>
</linearGradient>
<linearGradient id="paint6_linear" x1="70.2693" y1="42.25" x2="61.9321" y2="48.1522" gradientUnits="userSpaceOnUse">
<stop offset="0.164376" stop-color="#9B82FF"/>
<stop offset="0.5747" stop-color="#5AB2EB"/>
<stop offset="0.779941" stop-color="#00F0FF"/>
</linearGradient>
<linearGradient id="paint7_linear" x1="37.2693" y1="61.5" x2="28.9321" y2="67.4022" gradientUnits="userSpaceOnUse">
<stop offset="0.164376" stop-color="#9B82FF"/>
<stop offset="0.5747" stop-color="#5AB2EB"/>
<stop offset="0.779941" stop-color="#00F0FF"/>
</linearGradient>
<linearGradient id="paint8_linear" x1="23.5193" y1="61.5" x2="15.1821" y2="67.4022" gradientUnits="userSpaceOnUse">
<stop offset="0.164376" stop-color="#9B82FF"/>
<stop offset="0.5747" stop-color="#5AB2EB"/>
<stop offset="0.779941" stop-color="#00F0FF"/>
</linearGradient>
<linearGradient id="paint9_linear" x1="51.0194" y1="61.5" x2="42.6821" y2="67.4022" gradientUnits="userSpaceOnUse">
<stop offset="0.164376" stop-color="#9B82FF"/>
<stop offset="0.5747" stop-color="#5AB2EB"/>
<stop offset="0.779941" stop-color="#00F0FF"/>
</linearGradient>
<linearGradient id="paint10_linear" x1="37.2693" y1="-4.5" x2="28.9321" y2="1.4022" gradientUnits="userSpaceOnUse">
<stop offset="0.164376" stop-color="#9B82FF"/>
<stop offset="0.5747" stop-color="#5AB2EB"/>
<stop offset="0.779941" stop-color="#00F0FF"/>
</linearGradient>
<linearGradient id="paint11_linear" x1="23.5193" y1="-4.5" x2="15.1821" y2="1.4022" gradientUnits="userSpaceOnUse">
<stop offset="0.164376" stop-color="#9B82FF"/>
<stop offset="0.5747" stop-color="#5AB2EB"/>
<stop offset="0.779941" stop-color="#00F0FF"/>
</linearGradient>
<linearGradient id="paint12_linear" x1="51.0194" y1="-4.5" x2="42.6821" y2="1.4022" gradientUnits="userSpaceOnUse">
<stop offset="0.164376" stop-color="#9B82FF"/>
<stop offset="0.5747" stop-color="#5AB2EB"/>
<stop offset="0.779941" stop-color="#00F0FF"/>
</linearGradient>
</defs>
</svg>
